<?xml version="1.0" encoding="UTF-8" standalone="no"?>
<svg
   xmlns:dc="http://purl.org/dc/elements/1.1/"
   xmlns:cc="http://creativecommons.org/ns#"
   xmlns:rdf="http://www.w3.org/1999/02/22-rdf-syntax-ns#"
   xmlns:svg="http://www.w3.org/2000/svg"
   xmlns="http://www.w3.org/2000/svg"
   xmlns:sodipodi="http://sodipodi.sourceforge.net/DTD/sodipodi-0.dtd"
   xmlns:inkscape="http://www.inkscape.org/namespaces/inkscape"
   version="1.1"
   id="Calque_1"
   x="0px"
   y="0px"
   viewBox="0 0 238.8 73.3"
   width="710.714286"
   height="218.154762"
   style="enable-background:new 0 0 238.8 73.3;"
   xml:space="preserve"
   inkscape:version="1.0.1 (0767f8302a, 2020-10-17)"
   sodipodi:docname="xtensor-zarr (1).svg"><metadata
     id="metadata19"><rdf:RDF><cc:Work
         rdf:about=""><dc:format>image/svg+xml</dc:format><dc:type
           rdf:resource="http://purl.org/dc/dcmitype/StillImage" /><dc:title /></cc:Work></rdf:RDF></metadata><defs
     id="defs17" /><sodipodi:namedview
     pagecolor="#ffffff"
     bordercolor="#666666"
     borderopacity="1"
     objecttolerance="10"
     gridtolerance="10"
     guidetolerance="10"
     inkscape:pageopacity="0"
     inkscape:pageshadow="2"
     inkscape:window-width="2560"
     inkscape:window-height="1380"
     id="namedview15"
     showgrid="false"
     inkscape:zoom="0.89128896"
     inkscape:cx="519.38652"
     inkscape:cy="109.61809"
     inkscape:window-x="0"
     inkscape:window-y="0"
     inkscape:window-maximized="1"
     inkscape:current-layer="text838"
     inkscape:snap-text-baseline="true"
     inkscape:document-rotation="0" /><style
     type="text/css"
     id="style3">
	.st0{fill:#666666;}
	.st1{fill:#7FD787;}
	.st2{opacity:0.28;fill:#7FD787;enable-background:new    ;}
</style><g
     id="g5"><g
       id="g9"><path
         class="st1"
         d="M79.7,15.9L79.7,15.9L79.7,15.9L79.7,15.9z M71.4,38.4c-0.5-1.2-0.8-2.5-0.8-3.8c0-0.9,0-18.8,0-18.8h9.1    l-1.2-2.3h-7.9V5.2h-2.6v8.2h-8l-1.2,2.4h9.2c0,0,0,17.1,0,18c-0.1,1.9,0.2,3.9,0.9,5.5c0,0.1,0.8,1.6,1.9,3.1    c0.6,0.6,1.8,1.7,3.5,2.9l1.2-2.4c-1.3-0.9-2.2-1.6-2.7-2.2C71.9,39.5,71.4,38.4,71.4,38.4z M42.3,4.9c-1.6,1-2.8,2.3-3.8,3.7    C38.1,9.3,31.4,19.2,27.7,25C24.5,29.7,16.5,41.7,16,42.5c-1.3,2.2-3.1,4.1-5.2,5.5c0,0.1-2.3,1.4-5,2.3c-0.2,0-0.4,0.1-0.5,0.1    H45c-0.1,0-0.2-0.1-0.4-0.1c-2.7-0.9-4.9-2.2-5-2.3c-2.1-1.4-3.9-3.3-5.2-5.5c-0.4-0.6-5.6-8.4-9.3-13.9c0.9-1.3,1.6-2.5,2.3-3.3    c0,0.1,0.1,0.1,0.1,0.2c3.8,5.7,10.5,15.7,10.9,16.4c1,1.4,2.2,2.7,3.8,3.7c0,0,1.6,1.1,3.8,1.7c0.9,0.3,2.4,0.5,4.3,0.8v2.3h0.1    V2.4c-1.9,0.2-3.5,0.4-4.3,0.8C44,3.8,42.3,4.9,42.3,4.9z M11.9,41.9c0.4-0.8,7.1-10.7,10.9-16.4c3.1-4.9,11.1-16.7,11.7-17.6    c1.3-2.2,3.1-4.1,5.2-5.5c0-0.1,2.3-1.4,5-2.3C44.8,0.1,45,0,45.2,0H5.4c0.1,0,0.3,0.1,0.4,0.1c2.7,0.9,4.9,2.2,5,2.3    c2.1,1.4,3.9,3.3,5.2,5.5c0.4,0.6,5.6,8.4,9.3,13.9c-0.9,1.3-1.6,2.5-2.3,3.3c0-0.1-0.1-0.1-0.1-0.2C19,19.3,12.3,9.3,11.9,8.5    c-1-1.4-2.2-2.7-3.8-3.7c0,0-1.6-1.1-3.8-1.7C3.5,2.8,1.9,2.6,0,2.4v45.8c1.9-0.2,3.5-0.4,4.3-0.8c2.2-0.6,3.8-1.7,3.8-1.7    C9.7,44.5,11,43.3,11.9,41.9z M201.3,12.7c-9.6,0-13.4,5.4-13.4,16.7c0,11.5,3.8,16.7,13.4,16.7c9.6,0,13.4-5.4,13.4-16.7    C214.7,18,210.9,12.7,201.3,12.7z M201.3,44.1c-9.1,0-10.9-5.7-10.9-14.5s1.8-14.5,10.9-14.5c9.1,0,10.9,5.7,10.9,14.5    C212.2,38.2,210.3,44,201.3,44.1z M237.7,12.7c-4.6,0.2-7.8,1.8-9.8,5v-4.5c-0.9,0.1-1.7,0.3-2.5,0.5v32.1    c0.8,0.2,1.6,0.4,2.5,0.5v-17c0-8.8,1.8-14.5,10.9-14.5l0,0L237.7,12.7z M101,12.7c-5.8,0-12.7,2.2-12.7,16.9    c0,13.6,5.9,16.7,13.3,16.7c4,0,7.5-0.8,10.4-2.5l-1-2.2c-3,1.7-5.8,2.4-9.4,2.4c-5.8,0-10.4-2.1-10.8-12.4v-1.3h22.5l0,0v-0.9    C113.3,16.9,108.7,12.7,101,12.7z M90.6,28c0.2-11,5.1-13,10.3-13c5.7,0,9.7,3,9.7,13H90.6z M136.3,12.6h-1.4    c-9.5,0-10.8,8-10.8,15v16.9c0.8,0.6,1.6,1.2,2.6,1.6V28.4c0-7.9,1.2-13.5,8.6-13.5h0.6c7.5,0,8.6,5.5,8.6,13.5v17.8    c0.9-0.4,1.8-1,2.6-1.6V27.8C147.1,20.6,145.7,12.6,136.3,12.6z M168.9,28c-5-1.4-8-2.7-8-6.8c0-4.8,3.3-6.2,7.6-6.2    c2.8,0,5.4,0.4,7.8,1.6l1-2.2c-2.8-1.4-5.8-1.7-8.8-1.7c-5.2,0-9.9,2.4-9.9,8.3s4.2,7.8,9.4,9.2c4.9,1.3,8.8,2.4,8.8,6.7    c0,5.3-3.8,7-8,7c-3.8,0-7.5-1-10.2-2.8l-1.1,2.1c3.2,2.2,7.1,2.9,11.3,2.9c5.5,0,10.4-2.5,10.4-9.2    C179.1,30.9,174.4,29.6,168.9,28z"
         id="path11" /><path
         class="st2"
         d="M27.4,25.2c-0.6,0.9-1.4,2.1-2.3,3.3c3.7,5.5,8.8,13.3,9.3,13.9c1.3,2.2,3.1,4.1,5.2,5.5c0,0.1,2.3,1.4,5,2.3    c0.2,0,0.4,0.1,0.5,0.1h5.2V48c-1.9-0.2-3.5-0.4-4.3-0.8c-2.2-0.6-3.8-1.7-3.8-1.7c-1.6-1-2.8-2.3-3.8-3.7    c-0.4-0.8-7.1-10.7-10.9-16.4l0,0C27.5,25.4,27.5,25.3,27.4,25.2 M5.2,0H0v2.4c1.9,0.2,3.5,0.4,4.3,0.8c2.2,0.6,3.8,1.7,3.8,1.7    c1.6,1,2.8,2.3,3.8,3.7C12.3,9.3,19,19.2,22.8,25l0,0c0,0.1,0.1,0.1,0.1,0.2c0.6-0.9,1.4-2.1,2.3-3.3c-3.7-5.5-8.8-13.3-9.3-13.9    c-1.3-2.2-3.1-4.1-5.2-5.5c0-0.1-2.3-1.4-5-2.3C5.6,0.1,5.4,0,5.2,0"
         id="path13" /></g></g><g
     aria-label="Zarr"
     id="text934"
     style="font-weight:bold;font-size:28.672px;line-height:1.25;font-family:'Phetsarath OT';-inkscape-font-specification:'Phetsarath OT, Bold';letter-spacing:0px;word-spacing:0px;writing-mode:lr-tb;display:inline;fill:#666666;fill-opacity:1;stroke-width:0.5152;stroke-miterlimit:4;stroke-dasharray:none"
     transform="translate(1.991535,0.99576752)"><g
       aria-label="Zarr"
       id="text838"
       style="font-size:28.3348px;line-height:1.25;font-family:Futura;-inkscape-font-specification:Futura;letter-spacing:0px;word-spacing:0px;stroke-width:0.364896;stroke-miterlimit:4;stroke-dasharray:none"><path
         id="path846"
         style="font-style:normal;font-variant:normal;font-weight:bold;font-stretch:normal;font-family:Helvetica;-inkscape-font-specification:'Helvetica Bold';fill:#666666;fill-opacity:1;stroke-width:0.364896;stroke-miterlimit:4;stroke-dasharray:none"
         d="m 227.37962,55.85587 v 15.300792 h 3.96688 v -8.132088 c 0,-2.323453 1.16172,-3.48518 3.48518,-3.48518 0.42502,0 0.70837,0.02833 1.24673,0.113339 v -4.023542 c -0.22668,-0.02833 -0.31168,-0.02833 -0.48169,-0.02833 -1.81343,0 -3.37184,1.190062 -4.25022,3.258502 V 55.85587 Z m -10.93722,0 v 15.300792 h 3.96687 v -8.132088 c 0,-2.323453 1.16173,-3.48518 3.48518,-3.48518 0.42502,0 0.70837,0.02833 1.24673,0.113339 v -4.023542 c -0.22668,-0.02833 -0.31168,-0.02833 -0.48169,-0.02833 -1.81343,0 -3.37184,1.190062 -4.25022,3.258502 V 55.85587 Z m -2.6918,14.8191 c -0.68003,-0.6517 -0.90671,-1.105057 -0.90671,-1.870096 v -8.500441 c 0,-3.116828 -2.12511,-4.703577 -6.26199,-4.703577 -4.13688,0 -6.29033,1.756758 -6.54534,5.298608 h 3.8252 c 0.19834,-1.586749 0.85004,-2.096775 2.80514,-2.096775 1.53008,0 2.29512,0.510026 2.29512,1.530079 0,0.510027 -0.25501,0.935049 -0.68004,1.190062 -0.53836,0.283348 -0.53836,0.283348 -2.49346,0.595031 l -1.58675,0.283348 c -3.03182,0.510026 -4.50523,2.06844 -4.50523,4.816916 0,2.748475 1.84176,4.590237 4.64691,4.590237 1.70009,0 3.23016,-0.70837 4.6469,-2.181779 0,0.793374 0.085,1.076722 0.45336,1.530079 h 4.30689 z m -4.78858,-5.66696 c 0,2.295119 -1.13339,3.59852 -3.14516,3.59852 -1.33174,0 -2.15345,-0.70837 -2.15345,-1.841762 0,-1.190062 0.62337,-1.756758 2.26679,-2.096775 l 1.36007,-0.255014 c 1.04838,-0.198343 1.21839,-0.255013 1.67175,-0.481691 z M 197.7982,50.500592 h -15.52747 v 3.54185 h 10.56888 l -10.56888,13.57237 v 3.54185 h 15.52747 v -3.54185 h -10.54055 l 10.54055,-13.57237 z" /></g></g></svg>
